<svg width="260" height="224" viewBox="0 0 260 224" fill="none"
  xmlns="http://www.w3.org/2000/svg">
  <rect x="7.5" y="7.5" width="245" height="209" rx="32.5" fill="#34495E" stroke="url(#paint0_linear_6_2)" stroke-width="15"/>
  <g clip-path="url(#clip0_6_2)">
    <path d="M159.006 79.8281C159.006 81.8941 158.578 84.2244 157.818 86.6988C156.464 91.1191 154.112 96.0199 151.309 100.921L151.286 100.969C150.549 102.266 149.789 103.539 149.005 104.813C147.96 106.494 146.891 108.176 145.798 109.809L145.703 109.954C141.403 116.416 136.985 122.229 134.016 125.953C132.187 128.259 128.79 128.259 126.984 125.953C124.039 122.229 119.597 116.416 115.297 109.954C110.926 103.395 106.674 96.14 104.203 89.6777C104.013 89.1732 103.823 88.6688 103.657 88.1643C102.612 85.1373 101.994 82.3025 101.994 79.8521C101.994 78.723 102.065 77.618 102.184 76.5369C103.8 62.1469 115.867 51 130.5 51C146.249 51 159.006 63.9006 159.006 79.8281ZM145.703 123.214C148.91 118.842 152.545 113.629 155.846 108.224C156.274 107.527 156.702 106.83 157.105 106.11V159.994L187.512 148.823V88.0682L161.69 97.5574C162.213 96.4283 162.735 95.3232 163.187 94.1941C164.588 90.8309 165.8 87.1793 166.322 83.5758L191.265 74.3988C193.023 73.7502 194.971 74.0145 196.491 75.0955C198.011 76.1766 198.914 77.9303 198.914 79.8281V152.859C198.914 155.286 197.418 157.448 195.161 158.289L153.352 173.664C152.093 174.12 150.715 174.12 149.456 173.664L109.596 158.985L69.735 173.64C67.9771 174.288 66.0292 174.024 64.5089 172.943C62.9886 171.862 62.0859 170.108 62.0859 168.234V95.2031C62.0859 92.7768 63.5825 90.6146 65.8392 89.7738L94.3926 79.2756C94.3926 79.4678 94.3926 79.6359 94.3926 79.8281C94.3926 83.4557 95.2715 87.2033 96.5068 90.7828L73.4883 99.2391V159.994L103.895 148.823V106.134C104.322 106.854 104.726 107.551 105.154 108.248C108.455 113.653 112.066 118.866 115.297 123.238V148.823L145.703 159.994V123.214ZM130.5 87.5156C133.02 87.5156 135.437 86.5032 137.219 84.7011C139.001 82.899 140.002 80.4548 140.002 77.9063C140.002 75.3577 139.001 72.9135 137.219 71.1114C135.437 69.3093 133.02 68.2969 130.5 68.2969C127.98 68.2969 125.563 69.3093 123.781 71.1114C121.999 72.9135 120.998 75.3577 120.998 77.9063C120.998 80.4548 121.999 82.899 123.781 84.7011C125.563 86.5032 127.98 87.5156 130.5 87.5156Z" fill="white"/>
  </g>
  <defs>
    <linearGradient id="paint0_linear_6_2" x1="299.601" y1="261.342" x2="16.528" y2="13.2565" gradientUnits="userSpaceOnUse">
      <stop stop-color="#03448C"/>
      <stop offset="1" stop-color="#42B983"/>
    </linearGradient>
    <clipPath id="clip0_6_2">
      <rect width="139" height="123" fill="white" transform="translate(61 51)"/>
    </clipPath>
  </defs>
</svg>
