<svg width="260" height="224" viewBox="0 0 260 224" fill="none"
  xmlns="http://www.w3.org/2000/svg">
  <rect x="7.5" y="7.5" width="245" height="209" rx="32.5" fill="#34495E" stroke="url(#paint0_linear_7_8)" stroke-width="15"/>
  <g clip-path="url(#clip0_7_8)">
    <path d="M133.906 125.953C141.634 116.32 159.235 92.9449 159.235 79.8281C159.235 63.9006 146.305 51 130.342 51C114.379 51 101.45 63.9006 101.45 79.8281C101.45 92.9449 119.05 116.32 126.779 125.953C128.633 128.259 132.076 128.259 133.906 125.953ZM130.342 68.2969C132.897 68.2969 135.346 69.3093 137.152 71.1114C138.958 72.9135 139.973 75.3577 139.973 77.9062C139.973 80.4548 138.958 82.899 137.152 84.7011C135.346 86.5032 132.897 87.5156 130.342 87.5156C127.788 87.5156 125.338 86.5032 123.532 84.7011C121.726 82.899 120.711 80.4548 120.711 77.9062C120.711 75.3577 121.726 72.9135 123.532 71.1114C125.338 69.3093 127.788 68.2969 130.342 68.2969Z" fill="#42B983"/>
    <path d="M161.161 171.838V99.143C162.004 97.4853 162.774 95.8277 163.472 94.1941C163.593 93.9058 163.713 93.5935 163.834 93.3053L191.763 82.1584C195.567 80.6449 199.685 83.4316 199.685 87.5156V152.571C199.685 154.925 198.24 157.039 196.049 157.928L161.161 171.838ZM64.6357 95.9959L94.1543 84.2244C94.7321 87.6117 95.8878 91.023 97.2362 94.1941C97.9344 95.8277 98.7049 97.4853 99.5476 99.143V159.538L68.9214 171.766C65.1172 173.279 61 170.493 61 166.409V101.353C61 98.9988 62.4446 96.8848 64.6357 95.9959ZM153.456 112.26V172.15L107.228 158.961V112.26C112.164 119.779 117.413 126.578 120.76 130.758C125.695 136.908 134.989 136.908 139.925 130.758C143.272 126.578 148.521 119.779 153.456 112.26Z" fill="white"/>
  </g>
  <defs>
    <linearGradient id="paint0_linear_7_8" x1="299.601" y1="261.342" x2="16.528" y2="13.2565" gradientUnits="userSpaceOnUse">
      <stop stop-color="#03448C"/>
      <stop offset="1" stop-color="#42B983"/>
    </linearGradient>
    <clipPath id="clip0_7_8">
      <rect width="138.685" height="123" fill="white" transform="translate(61 51)"/>
    </clipPath>
  </defs>
</svg>
